<svg width="14" height="14" viewBox="0 0 14 14" fill="none" xmlns="http://www.w3.org/2000/svg">
<g clip-path="url(#clip0_21683_7610)">
<path d="M13.9635 5.36974C13.8719 5.08626 13.6204 4.88491 13.3229 4.8581L9.28216 4.4912L7.68432 0.751309C7.56651 0.477223 7.29819 0.299805 7.00007 0.299805C6.70195 0.299805 6.43364 0.477223 6.31582 0.751949L4.71798 4.4912L0.67656 4.8581C0.379616 4.88555 0.128816 5.08626 0.0366355 5.36974C-0.0555452 5.65323 0.0295858 5.96417 0.254216 6.16017L3.30857 8.83886L2.40791 12.8063C2.34201 13.098 2.45523 13.3995 2.69727 13.5745C2.82737 13.6685 2.97958 13.7163 3.13307 13.7163C3.26542 13.7163 3.39669 13.6806 3.51451 13.6101L7.00007 11.5269L10.4844 13.6101C10.7393 13.7635 11.0607 13.7495 11.3022 13.5745C11.5444 13.399 11.6575 13.0973 11.5916 12.8063L10.6909 8.83886L13.7453 6.1607C13.9699 5.96417 14.0557 5.65376 13.9635 5.36974V5.36974Z" fill="#FFC107"/>
</g>
<g clip-path="url(#clip1_21683_7610)">
<path d="M11.7649 5.73235C11.7022 5.51186 11.5302 5.35526 11.3266 5.33441L8.56189 5.04903L7.46863 2.14023C7.38802 1.92705 7.20444 1.78906 7.00046 1.78906C6.79648 1.78906 6.6129 1.92705 6.53229 2.14073L5.43903 5.04903L2.67385 5.33441C2.47067 5.35576 2.29907 5.51186 2.236 5.73235C2.17293 5.95284 2.23118 6.19468 2.38487 6.34712L4.4747 8.43055L3.85846 11.5163C3.81336 11.7432 3.89083 11.9777 4.05644 12.1138C4.14545 12.1869 4.2496 12.2241 4.35462 12.2241C4.44517 12.2241 4.53499 12.1964 4.6156 12.1415L7.00046 10.5213L9.38444 12.1415C9.55889 12.2608 9.7788 12.25 9.94404 12.1138C10.1097 11.9773 10.1871 11.7427 10.142 11.5163L9.52579 8.43055L11.6156 6.34754C11.7693 6.19468 11.828 5.95325 11.7649 5.73235V5.73235Z" fill="white"/>
</g>
<defs>
<clipPath id="clip0_21683_7610">
<rect width="14" height="14" fill="white"/>
</clipPath>
<clipPath id="clip1_21683_7610">
<rect width="9.57895" height="10.8889" fill="white" transform="translate(2.21094 1.55566)"/>
</clipPath>
</defs>
</svg>
