<svg width="63" height="54" viewBox="0 0 63 54" fill="none" xmlns="http://www.w3.org/2000/svg">
<path d="M20.4257 39.6H50.7662C53.3117 39.6 55.5206 37.918 56.1361 35.5172L62.9429 9.44424C63.0836 8.9058 62.9611 8.33412 62.6115 7.8954C62.2617 7.45668 61.7239 7.2 61.1542 7.2H12.5648L11.4736 3.79092C10.7479 1.5234 8.62372 0 6.18814 0H1.8457C0.826381 0 0 0.80592 0 1.8C0 2.79408 0.826258 3.6 1.8457 3.6H6.18814C7 3.6 7.70801 4.10784 7.94992 4.8636C8.49969 6.58116 17.4902 34.6691 18.0795 36.5102C16.1963 37.3733 14.8886 39.2401 14.8886 41.4C14.8886 44.3776 17.3726 46.7988 20.4257 46.7988H22.5889C22.384 47.3622 22.2714 47.969 22.2714 48.6C22.2714 51.5776 24.7554 54 27.8085 54C30.8617 54 33.3456 51.5776 33.3456 48.6C33.3456 47.969 33.2331 47.3634 33.0282 46.7988H41.046C40.8411 47.3634 40.7286 47.969 40.7286 48.6C40.7286 51.5776 43.2125 54 46.2657 54C49.3188 54 51.8028 51.5776 51.8028 48.6C51.8028 47.969 51.6902 47.3634 51.4853 46.8H53.6483C54.6677 46.8 55.494 45.9941 55.494 45C55.494 44.0059 54.6677 43.2 53.6483 43.2H20.4257C19.408 43.2 18.58 42.3925 18.58 41.4C18.58 40.4075 19.408 39.6 20.4257 39.6ZM29.6542 48.6C29.6542 49.5925 28.8263 50.4 27.8085 50.4C26.7908 50.4 25.9628 49.5925 25.9628 48.6C25.9628 47.6075 26.7908 46.8 27.8085 46.8C28.8263 46.8 29.6542 47.6075 29.6542 48.6ZM48.1112 48.6C48.1112 49.5925 47.2833 50.4 46.2655 50.4C45.2478 50.4 44.4198 49.5925 44.4198 48.6C44.4198 47.6075 45.2478 46.8 46.2655 46.8C47.2833 46.8 48.1112 47.6075 48.1112 48.6ZM42.329 25.2L40.9448 36H33.1293L31.7451 25.2H42.329ZM31.2836 21.6L29.8994 10.8H44.1747L42.7905 21.6H31.2836ZM29.4091 36H21.7831L18.3262 25.2H28.0249L29.4091 36ZM52.5568 34.6366C52.3511 35.4394 51.6146 36 50.7662 36H44.6649L46.0492 25.2H55.0203L52.5568 34.6366ZM55.9601 21.6H46.5105L47.8948 10.8H58.7796L55.9601 21.6ZM26.1792 10.8L27.5634 21.6H17.1739L13.717 10.8H26.1792Z" fill="#40AA54"/>
</svg>
