<svg width="40" height="40" viewBox="0 0 40 40" fill="none" xmlns="http://www.w3.org/2000/svg">
<rect width="40" height="40" rx="20" fill="url(#paint0_linear_318_33)"/>
<path fill-rule="evenodd" clip-rule="evenodd" d="M26.1845 13.3333H24.0477V14.6667H25.4839L28.7097 19.78V24.8067H28.139C27.8432 23.7072 26.8743 22.9463 25.7698 22.9463C24.6654 22.9463 23.6964 23.7072 23.4006 24.8067H22.7574V12H10V21.6134H21.4671V24.8067H16.6355C16.3397 23.7072 15.3707 22.9463 14.2663 22.9463C13.1619 22.9463 12.1929 23.7072 11.8971 24.8067H11.2903V22.9461H10V26.1394H11.9C12.1943 27.2388 13.1624 28 14.2663 28C15.3701 28 16.3383 27.2388 16.6326 26.1394H23.4035C23.6979 27.2388 24.666 28 25.7698 28C26.8737 28 27.8418 27.2388 28.1361 26.1394H30V19.383L26.1845 13.3333ZM14.2665 26.6667C13.6294 26.6612 13.1168 26.1241 13.1203 25.4658C13.1239 24.8075 13.6423 24.2763 14.2793 24.2781C14.9164 24.2799 15.4319 24.8141 15.4319 25.4724C15.4289 26.1346 14.9073 26.6691 14.2665 26.6667ZM11.2903 20.28H15.7335V17.473H11.2903V20.28ZM15.7335 16.1397H11.2903V13.3333H15.7335V16.1397ZM17.0239 20.2807H21.4671V17.473H17.0239V20.2807ZM21.4671 16.1404H17.0239V13.3333H21.4671V16.1404ZM24.6239 25.4653C24.6201 26.1237 25.1326 26.661 25.7697 26.6667C26.4104 26.6693 26.9321 26.1352 26.9355 25.4731C26.9358 24.8147 26.4205 24.2802 25.7834 24.2781C25.1463 24.276 24.6277 24.807 24.6239 25.4653Z" fill="white"/>
<defs>
<linearGradient id="paint0_linear_318_33" x1="20" y1="5" x2="20" y2="40" gradientUnits="userSpaceOnUse">
<stop stop-color="#6AA9FF"/>
<stop offset="1" stop-color="#005AD5"/>
</linearGradient>
</defs>
</svg>
