<svg width="40" height="40" viewBox="0 0 40 40" fill="none" xmlns="http://www.w3.org/2000/svg">
<rect width="40" height="40" rx="20" fill="url(#paint0_linear_318_60)"/>
<path d="M27.0347 19.8172C26.8087 19.8172 26.6255 20.01 26.6255 20.2477V27.9169H22.2339V23.1026C22.2339 22.8649 22.0506 22.6722 21.8247 22.6722H18.6189C18.3929 22.6722 18.2096 22.8649 18.2096 23.1026V26.92C18.2096 27.1577 18.3929 27.3505 18.6189 27.3505C18.8448 27.3505 19.0281 27.1577 19.0281 26.92V23.5331H21.4154V27.9169H13.818V17.3803L20.2217 11.9822L26.7787 17.5095C26.9551 17.6582 27.2127 17.6282 27.354 17.4428C27.4953 17.2572 27.4669 16.9864 27.2906 16.8377L20.4776 11.0946C20.3281 10.9685 20.1153 10.9685 19.9658 11.0946L13.1528 16.8377C13.0559 16.9194 12.9995 17.0429 12.9995 17.1736V28.3473C12.9995 28.585 13.1827 28.7778 13.4088 28.7778H27.0347C27.2607 28.7778 27.444 28.585 27.444 28.3473V20.2477C27.444 20.0099 27.2607 19.8172 27.0347 19.8172Z" fill="white" stroke="white" stroke-width="0.5"/>
<path d="M15.4058 21.0001C18.0021 20.3211 19.0635 19.2932 19.0153 16.5557" stroke="white" stroke-width="1.3"/>
<defs>
<linearGradient id="paint0_linear_318_60" x1="0" y1="-15" x2="0" y2="40" gradientUnits="userSpaceOnUse">
<stop stop-color="#6DF5FC"/>
<stop offset="1" stop-color="#3CB6BB"/>
</linearGradient>
</defs>
</svg>
