<svg width="108" height="108" viewBox="0 0 108 108" fill="none" xmlns="http://www.w3.org/2000/svg">
<g filter="url(#filter0_d_345_5315)">
<path d="M82.3333 1.66701H39C41.6274 1.6635 44.2297 2.17842 46.6578 3.18227C49.0859 4.18612 51.2921 5.65918 53.15 7.51705C55.0078 9.37492 56.4809 11.5811 57.4847 14.0092C58.4886 16.4373 59.0035 19.0396 59 21.667V51.667H102.333V21.667C102.333 16.3627 100.226 11.2756 96.4755 7.52487C92.7247 3.77415 87.6377 1.66701 82.3333 1.66701Z" fill="#40AA54"/>
<path d="M5.66699 21.8418V51.4835L22.2437 36.6735L5.66699 21.8418Z" fill="#40AA54"/>
<path d="M49.0003 51.4837L32.4237 36.667L29.557 39.2337C28.9457 39.7809 28.1541 40.0835 27.3337 40.0835C26.5132 40.0835 25.7216 39.7809 25.1103 39.2337L22.2437 36.667L5.66699 51.4837V51.667H49.0003V51.4837Z" fill="#40AA54"/>
<path d="M49.0005 51.4835V21.8418L32.4238 36.6735L49.0005 51.4835Z" fill="#40AA54"/>
<path d="M22.2503 36.667L25.117 39.2337C25.7283 39.7809 26.5199 40.0835 27.3403 40.0835C28.1608 40.0835 28.9524 39.7809 29.5637 39.2337L32.4237 36.667L49.0003 21.842V21.667H5.66699V21.842L22.2437 36.667H22.2503Z" fill="#40AA54"/>
<path d="M59.001 51.667L54.001 61.667V98.3337H70.6676V51.667H59.001Z" fill="#40AA54"/>
<path d="M82.3333 0H37.3333C37.1322 0.00305074 36.9333 0.0431659 36.7467 0.118333C31.7104 0.653815 27.0203 2.93511 23.4899 6.56657C19.9595 10.198 17.8115 14.9506 17.4183 20H5.66667C5.22464 20 4.80072 20.1756 4.48816 20.4882C4.17559 20.8007 4 21.2246 4 21.6667V51.6667C4 52.1087 4.17559 52.5326 4.48816 52.8452C4.80072 53.1577 5.22464 53.3333 5.66667 53.3333H16.3033L13.255 59.43C12.8737 60.1923 12.6936 61.0394 12.7319 61.8909C12.7701 62.7423 13.0253 63.5699 13.4734 64.295C13.9214 65.02 14.5473 65.6185 15.2918 66.0336C16.0362 66.4487 16.8743 66.6666 17.7267 66.6667H50.2733C50.9835 66.6668 51.6856 66.5162 52.3333 66.225V98.3333C52.3333 98.7754 52.5089 99.1993 52.8215 99.5118C53.134 99.8244 53.558 100 54 100H70.6667C71.1087 100 71.5326 99.8244 71.8452 99.5118C72.1577 99.1993 72.3333 98.7754 72.3333 98.3333V53.3333H102.333C102.775 53.3333 103.199 53.1577 103.512 52.8452C103.824 52.5326 104 52.1087 104 51.6667V21.6667C103.993 15.9223 101.709 10.4152 97.6467 6.35333C93.5848 2.29147 88.0777 0.00661662 82.3333 0ZM39 3.33333C41.4086 3.32982 43.7941 3.80163 46.02 4.72172C48.2459 5.64182 50.2683 6.99211 51.9715 8.69521C53.6746 10.3983 55.0248 12.4208 55.9449 14.6467C56.865 16.8725 57.3368 19.2581 57.3333 21.6667V50H50.6667V21.6667C50.6667 21.2246 50.4911 20.8007 50.1785 20.4882C49.866 20.1756 49.442 20 49 20H20.7517C21.171 15.4482 23.2741 11.2167 26.6494 8.13401C30.0246 5.05132 34.4289 3.33939 39 3.33333ZM9.83333 50L22.2467 38.9083L24 40.4817C24.9167 41.3016 26.1034 41.7549 27.3333 41.7549C28.5632 41.7549 29.75 41.3016 30.6667 40.4817L32.4233 38.9083L44.8333 50H9.83333ZM34.93 36.6667L47.3333 25.57V47.76L34.93 36.6667ZM28.45 37.99C28.1444 38.2636 27.7486 38.4149 27.3383 38.4149C26.9281 38.4149 26.5323 38.2636 26.2267 37.99L9.83333 23.3333H44.8333L28.45 37.99ZM19.7417 36.6667L7.33333 47.76V25.57L19.7417 36.6667ZM50.2733 63.3333H17.7267C17.4427 63.3332 17.1634 63.2605 16.9155 63.1221C16.6675 62.9837 16.4589 62.7843 16.3097 62.5427C16.1604 62.3011 16.0754 62.0254 16.0626 61.7417C16.0498 61.458 16.1097 61.1757 16.2367 60.9217L20.03 53.3333H56.3033L51.7633 62.4117C51.625 62.6885 51.4124 62.9213 51.1492 63.0841C50.8861 63.2469 50.5828 63.3332 50.2733 63.3333ZM69 96.6667H55.6667V62.06L60.03 53.3333H69V96.6667ZM100.667 50H60.6667V21.6667C60.6793 18.0014 59.7557 14.3936 57.9835 11.1853C56.2113 7.97691 53.6492 5.27422 50.54 3.33333H82.3333C87.1939 3.33907 91.8537 5.27245 95.2906 8.70938C98.7275 12.1463 100.661 16.8061 100.667 21.6667V50Z" fill="#16162E"/>
</g>
<defs>
<filter id="filter0_d_345_5315" x="0" y="0" width="108" height="108" filterUnits="userSpaceOnUse" color-interpolation-filters="sRGB">
<feFlood flood-opacity="0" result="BackgroundImageFix"/>
<feColorMatrix in="SourceAlpha" type="matrix" values="0 0 0 0 0 0 0 0 0 0 0 0 0 0 0 0 0 0 127 0" result="hardAlpha"/>
<feOffset dy="4"/>
<feGaussianBlur stdDeviation="2"/>
<feComposite in2="hardAlpha" operator="out"/>
<feColorMatrix type="matrix" values="0 0 0 0 0 0 0 0 0 0 0 0 0 0 0 0 0 0 0.25 0"/>
<feBlend mode="normal" in2="BackgroundImageFix" result="effect1_dropShadow_345_5315"/>
<feBlend mode="normal" in="SourceGraphic" in2="effect1_dropShadow_345_5315" result="shape"/>
</filter>
</defs>
</svg>
