<svg width="40" height="40" viewBox="0 0 40 40" fill="none" xmlns="http://www.w3.org/2000/svg">
<rect x="2" y="2" width="36" height="36" rx="18" fill="url(#paint0_linear_318_47)"/>
<rect width="40" height="40" rx="20" fill="url(#paint1_linear_318_47)"/>
<path fill-rule="evenodd" clip-rule="evenodd" d="M27.9375 16.2513H24.5758C24.8169 16.0857 25.0241 15.9213 25.1686 15.7739C26.025 14.9077 26.025 13.4978 25.1686 12.6316C24.3367 11.79 22.8853 11.7889 22.0523 12.6316C21.5923 13.0962 20.3693 14.9878 20.5382 16.2513H20.4618C20.6296 14.9878 19.4078 13.0962 18.9477 12.6316C18.1147 11.7889 16.6633 11.79 15.8314 12.6316C14.975 13.4978 14.975 14.9077 15.8303 15.7739C15.9759 15.9213 16.1831 16.0857 16.4243 16.2513H13.0625C12.4771 16.2513 12 16.7309 12 17.3194V19.9895C12 20.2843 12.238 20.5236 12.5312 20.5236H13.0625V26.9319C13.0625 27.5204 13.5396 28 14.125 28H26.875C27.4604 28 27.9375 27.5204 27.9375 26.9319V20.5236H28.4688C28.762 20.5236 29 20.2843 29 19.9895V17.3194C29 16.7309 28.5229 16.2513 27.9375 16.2513ZM16.5847 13.3846C16.8004 13.1667 17.0862 13.0471 17.3901 13.0471C17.6929 13.0471 17.9787 13.1667 18.1944 13.3846C18.9105 14.1088 19.6224 15.9586 19.3748 16.216C19.3748 16.216 19.3302 16.2513 19.1782 16.2513C18.4441 16.2513 17.0426 15.4844 16.5847 15.0209C16.1395 14.5702 16.1395 13.8353 16.5847 13.3846ZM14.125 26.9319H19.9688V20.5236H14.125V26.9319ZM19.9688 19.4555H13.0625V17.3194H19.1782H19.9688V19.4555ZM24.4153 13.3846C23.985 12.951 23.237 12.9499 22.8056 13.3846C22.0895 14.1088 21.3776 15.9586 21.6241 16.216C21.6252 16.2171 21.6698 16.2513 21.8218 16.2513C22.5559 16.2513 23.9574 15.4844 24.4153 15.0209C24.8605 14.5702 24.8605 13.8353 24.4153 13.3846ZM26.875 26.9319H21.0312V20.5236H26.875V26.9319ZM21.0312 19.4555H27.9375V17.3194H21.8217H21.0312V19.4555Z" fill="white"/>
<defs>
<linearGradient id="paint0_linear_318_47" x1="2" y1="2" x2="2" y2="38" gradientUnits="userSpaceOnUse">
<stop offset="0.000737544" stop-color="#66D2ED"/>
<stop offset="1" stop-color="#7465EC"/>
</linearGradient>
<linearGradient id="paint1_linear_318_47" x1="20" y1="9.5" x2="20" y2="40" gradientUnits="userSpaceOnUse">
<stop stop-color="#FF6A9F"/>
<stop offset="1" stop-color="#D50059"/>
</linearGradient>
</defs>
</svg>
