<svg width="30" height="30" viewBox="0 0 30 30" fill="none" xmlns="http://www.w3.org/2000/svg">
<rect width="30" height="30" rx="8" fill="url(#paint0_linear_21585_7899)"/>
<path d="M15.082 8.26367C16.5689 8.26379 17.7824 9.43516 17.8506 10.9053L17.8535 11.0352V11.6191C17.8533 11.8778 17.6435 12.0879 17.3848 12.0879C17.1477 12.0878 16.9521 11.9112 16.9209 11.6826L16.916 11.6191V11.0352C16.9158 10.0585 16.1522 9.25989 15.1895 9.2041L15.082 9.20117H12.0352C11.0589 9.20117 10.2599 9.96497 10.2041 10.9277L10.2012 11.0352V17.9922C10.2014 18.9686 10.9647 19.7672 11.9268 19.8232L12.0352 19.8262H15.0879C16.0611 19.8262 16.8573 19.0654 16.9131 18.1064L16.916 17.999V17.4092C16.9161 17.1504 17.126 16.9405 17.3848 16.9404C17.6221 16.9404 17.8186 17.1169 17.8496 17.3457L17.8535 17.4092V17.999C17.8533 19.4809 16.6865 20.6909 15.2217 20.7607L15.0879 20.7637H12.0352C10.5486 20.7637 9.33473 19.5922 9.2666 18.1221L9.26367 17.9922V11.0352C9.26388 9.54849 10.4348 8.33484 11.9043 8.2666L12.0352 8.26367H15.082ZM19.4688 12.3613C19.6348 12.1945 19.8953 12.1787 20.0791 12.3145L20.1318 12.3594L21.9609 14.1816C21.9875 14.2081 22.0096 14.2383 22.0293 14.2705C22.0407 14.2891 22.052 14.3074 22.0605 14.3271C22.0642 14.3356 22.0661 14.3448 22.0693 14.3535C22.0758 14.3713 22.0817 14.389 22.0859 14.4072C22.0886 14.4188 22.09 14.4305 22.0918 14.4424C22.0947 14.4613 22.0971 14.48 22.0977 14.499C22.0978 14.5039 22.0996 14.5088 22.0996 14.5137C22.0996 14.5226 22.0972 14.5313 22.0967 14.54C22.096 14.5521 22.0954 14.5641 22.0938 14.5762C22.0915 14.5932 22.088 14.6096 22.084 14.626C22.0812 14.6372 22.0778 14.6481 22.0742 14.6592C22.0688 14.6756 22.0628 14.6915 22.0557 14.707C22.0522 14.7146 22.0488 14.7221 22.0449 14.7295C22.0356 14.7473 22.0251 14.7639 22.0137 14.7803C22.011 14.7842 22.0097 14.7891 22.0068 14.793L21.9922 14.8096C21.9865 14.8166 21.9807 14.8234 21.9746 14.8301L21.9619 14.8457L20.1318 16.668C19.9485 16.8506 19.6514 16.8502 19.4688 16.667C19.3027 16.5002 19.2883 16.2399 19.4248 16.0566L19.4697 16.0039L20.4941 14.9824H14.1055C13.8466 14.9824 13.6368 14.7725 13.6367 14.5137C13.6367 14.2764 13.8132 14.0799 14.042 14.0488L14.1055 14.0449H20.4961L19.4697 13.0234C19.3034 12.8575 19.2875 12.5977 19.4229 12.4141L19.4688 12.3613Z" fill="white"/>
<defs>
<linearGradient id="paint0_linear_21585_7899" x1="0" y1="0" x2="0" y2="30" gradientUnits="userSpaceOnUse">
<stop stop-color="#FF9CCB"/>
<stop offset="0.999481" stop-color="#EC4091"/>
</linearGradient>
</defs>
</svg>
