<svg width="30" height="30" viewBox="0 0 30 30" fill="none" xmlns="http://www.w3.org/2000/svg">
<rect width="30" height="30" rx="8" fill="url(#paint0_linear_21585_7850)"/>
<path d="M18.1172 8.5625C20.1233 8.5625 21.75 10.2257 21.75 12.2773V16.7227C21.75 18.7743 20.1233 20.4375 18.1172 20.4375H12.8828C10.8767 20.4375 9.25 18.7743 9.25 16.7227V12.2773C9.25 10.2257 10.8767 8.5625 12.8828 8.5625H18.1172ZM12.8828 9.49121C11.3784 9.49121 10.1582 10.7388 10.1582 12.2773V16.7227C10.1582 18.2612 11.3784 19.5088 12.8828 19.5088H18.1172C19.6216 19.5088 20.8418 18.2612 20.8418 16.7227V16.5498H18.8438C17.6928 16.5491 16.7595 15.5952 16.7588 14.418C16.759 13.2805 17.6314 12.3514 18.7295 12.29L18.8438 12.2871H20.8418V12.2773C20.8418 10.7388 19.6216 9.49121 18.1172 9.49121H12.8828ZM18.8447 13.2158C18.1948 13.2162 17.6681 13.7545 17.668 14.418C17.6683 15.0505 18.1455 15.5689 18.752 15.6172L18.8438 15.6211H20.8418V13.2158H18.8447ZM19.1211 13.916C19.3718 13.916 19.575 14.1235 19.5752 14.3799C19.5752 14.6151 19.4043 14.8101 19.1826 14.8408L19.1211 14.8447H18.9326C18.6817 14.8447 18.4785 14.6364 18.4785 14.3799C18.4787 14.1449 18.6495 13.9507 18.8711 13.9199L18.9326 13.916H19.1211ZM15.7207 11.373C15.9716 11.373 16.1758 11.5813 16.1758 11.8379C16.1758 12.0729 16.0047 12.2669 15.7832 12.2979L15.7207 12.3027H12.4512C12.2003 12.3027 11.9971 12.0944 11.9971 11.8379C11.9971 11.6027 12.1679 11.4087 12.3896 11.3779L12.4512 11.373H15.7207Z" fill="white"/>
<defs>
<linearGradient id="paint0_linear_21585_7850" x1="0" y1="0" x2="0" y2="30" gradientUnits="userSpaceOnUse">
<stop offset="0.000737544" stop-color="#9E93F4"/>
<stop offset="1" stop-color="#7465EC"/>
</linearGradient>
</defs>
</svg>
