<svg width="65" height="46" viewBox="0 0 65 46" fill="none" xmlns="http://www.w3.org/2000/svg">
<path d="M56.4619 2.0166C58.0124 0.615613 60.4007 0.663082 61.8955 2.15723H61.8965L62.0361 2.30469C63.3919 3.80557 63.392 6.09098 62.0361 7.5918L61.8965 7.73926L25.792 43.8438C25.0224 44.6133 24.0092 45 23 45C22.0537 45 21.1053 44.6599 20.3564 43.9834L20.209 43.8438L2.15723 25.791C0.662216 24.2964 0.615654 21.9068 2.01758 20.3564L2.15723 20.209C3.70005 18.6664 6.19619 18.6666 7.73926 20.209V20.21L23 35.4707L56.3145 2.15723L56.4619 2.0166Z" fill="#40AA54" stroke="#40AA54" stroke-width="2"/>
</svg>
