<svg width="30" height="30" viewBox="0 0 30 30" fill="none" xmlns="http://www.w3.org/2000/svg">
<rect width="30" height="30" rx="8" fill="url(#paint0_linear_21585_7800)"/>
<path fill-rule="evenodd" clip-rule="evenodd" d="M21.0039 11.7648L20.6149 11.0897C20.2858 10.5185 19.5564 10.3215 18.9844 10.6492V10.6492C18.7122 10.8096 18.3873 10.8551 18.0814 10.7757C17.7756 10.6963 17.5138 10.4985 17.354 10.2259C17.2512 10.0526 17.1959 9.85528 17.1938 9.65381V9.65381C17.2031 9.33079 17.0812 9.01778 16.856 8.78607C16.6307 8.55437 16.3213 8.4237 15.9982 8.42383H15.2144C14.8978 8.42382 14.5943 8.54998 14.371 8.77437C14.1477 8.99877 14.023 9.3029 14.0245 9.61948V9.61948C14.0151 10.2731 13.4825 10.798 12.8288 10.798C12.6274 10.7959 12.43 10.7406 12.2567 10.6378V10.6378C11.6848 10.31 10.9554 10.5071 10.6263 11.0783L10.2087 11.7648C9.87998 12.3353 10.0744 13.0642 10.6435 13.3952V13.3952C11.0134 13.6088 11.2413 14.0035 11.2413 14.4307C11.2413 14.8579 11.0134 15.2526 10.6435 15.4662V15.4662C10.0751 15.795 9.88049 16.5221 10.2087 17.0909V17.0909L10.6034 17.7717C10.7576 18.0499 11.0164 18.2552 11.3223 18.3422C11.6283 18.4291 11.9564 18.3906 12.2339 18.235V18.235C12.5067 18.0759 12.8317 18.0323 13.1368 18.1139C13.4419 18.1955 13.7017 18.3957 13.8586 18.6698C13.9614 18.8431 14.0167 19.0404 14.0188 19.2419V19.2419C14.0188 19.9022 14.5541 20.4376 15.2144 20.4376H15.9982C16.6563 20.4376 17.1907 19.9057 17.1938 19.2476V19.2476C17.1923 18.9301 17.3178 18.625 17.5423 18.4005C17.7669 18.1759 18.0719 18.0504 18.3895 18.052C18.5905 18.0574 18.787 18.1124 18.9616 18.2122V18.2122C19.532 18.5409 20.2609 18.3465 20.592 17.7774V17.7774L21.0039 17.0909C21.1633 16.8172 21.2071 16.4913 21.1255 16.1853C21.0439 15.8792 20.8436 15.6184 20.5691 15.4604V15.4604C20.2946 15.3025 20.0943 15.0416 20.0127 14.7356C19.9311 14.4296 19.9749 14.1037 20.1343 13.83C20.238 13.649 20.3881 13.4989 20.5691 13.3952V13.3952C21.1348 13.0643 21.3287 12.3397 21.0039 11.7705V11.7705V11.7648Z" stroke="white" stroke-width="1.5" stroke-linecap="round" stroke-linejoin="round"/>
<circle cx="15.609" cy="14.4308" r="1.6476" stroke="white" stroke-width="1.5" stroke-linecap="round" stroke-linejoin="round"/>
<defs>
<linearGradient id="paint0_linear_21585_7800" x1="0" y1="-10" x2="0" y2="30" gradientUnits="userSpaceOnUse">
<stop stop-color="#DF9EF5"/>
<stop offset="0.999426" stop-color="#A24ABF"/>
</linearGradient>
</defs>
</svg>
